<?xml version="1.0" standalone="no"?>
<!DOCTYPE svg PUBLIC "-//W3C//DTD SVG 20010904//EN"
 "http://www.w3.org/TR/2001/REC-SVG-20010904/DTD/svg10.dtd">
<svg version="1.0" xmlns="http://www.w3.org/2000/svg"
 width="346.000000pt" height="243.000000pt" viewBox="0 0 346.000000 243.000000"
 preserveAspectRatio="xMidYMid meet">

<g transform="translate(0.000000,243.000000) scale(0.100000,-0.100000)"
fill="#000000" stroke="none">
<path d="M1610 2425 c-8 -2 -49 -9 -90 -15 -357 -58 -698 -310 -865 -640 -21
-41 -50 -106 -65 -145 l-26 -70 -282 -3 -282 -2 0 -360 0 -360 291 0 290 0 11
-31 c21 -60 98 -210 140 -271 23 -34 78 -100 122 -147 313 -327 758 -452 1197
-336 119 32 292 116 395 193 93 70 224 203 282 290 42 61 134 240 144 280 6
22 7 22 297 22 l291 0 0 360 0 360 -280 0 c-266 0 -280 1 -290 19 -5 11 -10
31 -10 44 0 31 -87 210 -142 289 -59 87 -189 220 -283 291 -133 99 -303 175
-477 213 -66 14 -331 28 -368 19z m292 -440 c138 -29 259 -92 367 -191 59 -55
162 -184 146 -184 -3 0 1 -13 10 -30 l16 -30 -711 0 -711 0 13 23 c29 50 86
125 138 181 104 111 258 199 404 231 81 18 245 18 328 0z m1418 -475 c0 -20
-7 -20 -1595 -20 -1588 0 -1595 0 -1595 20 0 20 7 20 1595 20 1588 0 1595 0
1595 -20z m-2300 -290 c87 -210 103 -240 125 -240 7 0 17 -4 20 -10 4 -6 -27
-10 -87 -9 -74 0 -88 3 -70 11 27 13 27 28 5 91 l-17 47 -90 0 -91 0 -17 -43
c-25 -60 -23 -81 10 -94 23 -9 16 -11 -51 -12 -50 -1 -76 3 -72 9 3 6 13 10
20 10 18 0 34 32 125 245 87 204 90 209 100 199 5 -5 45 -97 90 -204z m1241
182 c42 -21 61 -40 87 -82 28 -48 32 -63 32 -126 0 -136 -80 -233 -199 -242
-71 -5 -121 10 -167 51 -127 111 -102 326 47 401 71 35 130 35 200 -2z m-1981
8 c0 -5 -9 -10 -20 -10 -31 0 -26 -32 29 -187 43 -122 50 -135 59 -113 5 14
22 62 38 107 l29 81 -20 49 c-12 27 -30 52 -43 58 -41 18 -22 25 69 25 57 0
88 -4 84 -10 -3 -5 -15 -10 -26 -10 -29 0 -24 -31 30 -185 40 -114 50 -135 58
-119 23 44 94 276 89 289 -3 8 -15 15 -26 15 -11 0 -20 5 -20 10 0 6 30 10 70
10 40 0 70 -4 70 -10 0 -5 -6 -10 -14 -10 -26 0 -41 -33 -112 -238 -39 -114
-76 -208 -81 -209 -6 -2 -32 57 -58 132 -26 74 -51 135 -55 135 -3 0 -26 -56
-50 -124 -45 -131 -55 -154 -64 -145 -3 3 -39 99 -80 213 -76 211 -88 236
-112 236 -8 0 -14 5 -14 10 0 6 35 10 85 10 50 0 85 -4 85 -10z m1224 -21 c9
-46 7 -79 -4 -79 -5 0 -10 7 -10 15 0 9 -11 27 -25 40 -18 19 -35 25 -70 25
l-45 0 0 -200 0 -201 33 -14 c30 -13 26 -14 -73 -14 -76 1 -97 3 -76 9 16 5
33 15 37 22 5 7 9 100 9 206 l0 192 -39 0 c-61 0 -91 -15 -97 -50 -4 -16 -10
-30 -15 -30 -10 0 -12 93 -2 103 3 4 88 7 188 7 l183 0 6 -31z m375 -21 c0
-45 -2 -50 -12 -34 -31 50 -44 56 -122 56 l-75 0 0 -90 0 -90 43 1 c58 1 77
10 92 45 12 27 13 22 14 -56 0 -82 0 -84 -14 -52 -14 31 -16 32 -75 32 l-60 0
0 -95 0 -96 33 -14 c30 -13 26 -14 -73 -14 -76 1 -97 3 -76 9 16 5 33 15 37
22 5 7 9 96 9 199 0 191 -4 209 -41 209 -10 0 -21 5 -24 10 -4 7 55 10 169 10
l176 0 -1 -52z m813 42 c110 -31 118 -172 11 -216 l-33 -14 62 -86 c71 -98 86
-110 144 -119 71 -12 74 -3 74 214 0 193 -4 211 -41 211 -10 0 -21 5 -25 11
-4 8 38 10 147 7 138 -3 159 -5 203 -27 127 -63 154 -261 49 -363 -62 -61 -98
-68 -328 -68 l-202 0 -74 105 c-63 88 -78 104 -101 105 -28 0 -28 0 -28 -67 0
-92 7 -113 44 -129 29 -12 23 -13 -74 -13 -97 0 -103 1 -74 13 17 8 34 21 38
31 10 27 7 341 -4 369 -6 16 -17 26 -29 26 -11 0 -23 5 -26 10 -8 13 218 13
267 0z m628 -500 c0 -20 -7 -20 -1595 -20 -1588 0 -1595 0 -1595 20 0 20 7 20
1595 20 1588 0 1595 0 1595 -20z m-910 -86 c0 -18 -98 -139 -154 -190 -148
-136 -321 -203 -522 -204 -212 0 -393 72 -547 218 -51 49 -137 159 -137 176 0
4 306 6 680 6 374 0 680 -3 680 -6z"/>
<path d="M867 1228 l-36 -83 71 -3 c39 -2 72 -1 74 1 4 4 -55 148 -66 160 -4
4 -23 -29 -43 -75z"/>
<path d="M2076 1370 c-45 -40 -60 -87 -60 -185 0 -135 50 -208 142 -208 46 0
81 20 116 67 17 22 22 46 24 115 5 108 -10 165 -53 208 -29 29 -40 33 -84 33
-42 0 -56 -5 -85 -30z"/>
<path d="M2557 1383 c-4 -3 -7 -47 -7 -96 l0 -90 52 5 c65 7 98 40 98 96 -1
41 -13 63 -47 80 -23 13 -86 16 -96 5z"/>
<path d="M3027 1383 c-4 -3 -7 -93 -7 -198 l0 -192 34 -6 c105 -17 197 56 211
167 17 136 -61 236 -183 236 -27 0 -52 -3 -55 -7z"/>
</g>
</svg>
